<svg width="512" height="512" xmlns="http://www.w3.org/2000/svg">

 <g>
  <title>background</title>
  <rect fill="none" id="canvas_background" height="402" width="582" y="-1" x="-1"/>
 </g>
 <g>
  <title>Layer 1</title>
  <path fill="#ffffff" id="svg_2" d="m109.6,301.5c0,56.8 0,113.4 0,170.4c85.8,0 171.1,0 257.1,0c0,-56.8 0,-113.5 0,-170.5c11.3,0 22,0 33.1,0c0,67.8 0,135.6 0,203.6c-107.9,0 -215.5,0 -323.5,0c0,-67.9 0,-135.5 0,-203.5c10.8,0 21.7,0 33.3,0z"/>
  <path fill="#ffffff" id="svg_3" d="m333,397.4c0,13.9 0,27.3 0,41.2c-65,0 -129.9,0 -195.2,0c0,-13.5 0,-27.2 0,-41.2c65.1,0 129.8,0 195.2,0z"/>
  <path fill="#ffffff" id="svg_4" d="m185.6,177.3c7.2,-12.2 14,-23.8 21.3,-36c56.2,33.1 112.2,66.1 168.8,99.5c-7.1,12 -14,23.8 -21.2,36.1c-56.4,-33.2 -112.4,-66.3 -168.9,-99.6z"/>
  <path fill="#ffffff" id="svg_5" d="m340.1,329.2c-63.2,-17 -125.9,-33.8 -189.2,-50.9c3.6,-13.5 7.2,-26.7 10.8,-40.4c63.1,17 126,33.8 189.3,50.9c-3.7,13.6 -7.3,26.8 -10.9,40.4z"/>
  <path fill="#ffffff" id="svg_6" d="m391.1,15.9c14,-2.4 27.3,-4.7 41.2,-7.1c11.2,64.4 22.3,128.5 33.5,193c-13.7,2.4 -27.2,4.7 -41.2,7.2c-11.2,-64.3 -22.3,-128.3 -33.5,-193.1z"/>
  <path fill="#ffffff" id="svg_7" d="m417.1,211.6c-11.8,8 -23,15.7 -34.6,23.5c-36.8,-54 -73.5,-107.7 -110.4,-161.9c11.5,-7.9 22.9,-15.6 34.6,-23.6c36.8,54.1 73.5,107.8 110.4,162z"/>
  <path fill="#ffffff" id="svg_8" d="m338.1,343.4c-1.3,14.2 -2.6,27.7 -3.8,41.7c-65.2,-6 -130,-12 -195.2,-18c1.3,-14.1 2.6,-27.6 3.9,-41.7c65,6 129.7,12 195.1,18z"/>
 </g>
</svg>